<svg xmlns="http://www.w3.org/2000/svg" viewBox="0 0 64 64">
  <use href="#g-skull" stroke="#2B2118" stroke-width="2.5" stroke-linejoin="round" stroke-linecap="round"></use>
  <g id="g-skull">
  <g fill="#D6C8A8">
  <g transform="rotate(35 32 32)">
  <rect x="6" y="29.5" width="52" height="5" rx="2.5"></rect>
  <circle cx="7" cy="29" r="3.2"></circle>
  <circle cx="7" cy="35" r="3.2"></circle>
  <circle cx="57" cy="29" r="3.2"></circle>
  <circle cx="57" cy="35" r="3.2"></circle>
  </g>
  <g transform="rotate(-35 32 32)">
  <rect x="6" y="29.5" width="52" height="5" rx="2.5"></rect>
  <circle cx="7" cy="29" r="3.2"></circle>
  <circle cx="7" cy="35" r="3.2"></circle>
  <circle cx="57" cy="29" r="3.2"></circle>
  <circle cx="57" cy="35" r="3.2"></circle>
  </g>
  </g>
  <path d="M15 26 Q15 9 32 9 Q49 9 49 26 Q49 35 42 38 H22 Q15 35 15 26 Z" fill="#E8DCC0"></path>
  <path d="M32 9 Q49 9 49 26 Q49 35 42 38 H32 Z" fill="#D6C8A8"></path>
  <rect x="24" y="37" width="16" height="12" rx="3.5" fill="#E8DCC0"></rect>
  <circle cx="25.5" cy="26.5" r="4.8" fill="#2B2118"></circle>
  <circle cx="38.5" cy="26.5" r="4.8" fill="#2B2118"></circle>
  <path d="M32 30.5 L29.3 36 H34.7 Z" fill="#2B2118"></path>
  <rect x="29" y="42.5" width="2.2" height="6.5" rx="1.1" fill="#2B2118"></rect>
  <rect x="33" y="42.5" width="2.2" height="6.5" rx="1.1" fill="#2B2118"></rect>
  </g>
</svg>